<svg fill="#ff4545" xmlns="http://www.w3.org/2000/svg" height="512" width="512"><path d="M456 145h-3.953c-12.054-39.307-36.046-74.639-68.433-100.437C347.014 15.41 302.886 0 256 0s-91.014 15.41-127.614 44.563C95.999 70.361 72.007 105.693 59.953 145H56c-8.284 0-15 6.716-15 15v60c0 8.284 6.716 15 15 15h58.129c7.333 34.719 27.125 64.893 54.462 85.613-27.056 13.529-50.569 33.2-69.016 57.941C74.339 412.401 61 452.667 61 495v2c0 8.284 6.716 15 15 15h360c8.284 0 15-6.716 15-15v-2c0-42.333-13.339-82.599-38.576-116.446-18.447-24.741-41.959-44.412-69.016-57.941A146.263 146.263 0 0 0 369.604 295H436c8.284 0 15-6.716 15-15v-45h5c8.284 0 15-6.716 15-15v-60c0-8.284-6.716-15-15-15zm-55 60c0-10.283-1.084-20.317-3.129-30h42.66l.081.003.057-.003H441v30zM147.077 68.029C178.311 43.15 215.976 30 256 30s77.689 13.15 108.923 38.029c25.229 20.096 44.485 46.954 55.484 76.971h-32.414C365.13 94.904 314.566 60 256 60s-109.13 34.904-131.992 85H91.593c10.999-30.017 30.256-56.875 55.484-76.971zM71 205v-30h43.129A145.052 145.052 0 0 0 111 205zm317.374 191.486c18.746 25.141 29.73 54.478 32.127 85.514H91.5c2.397-31.036 13.381-60.373 32.127-85.514 19.563-26.238 47-46.393 77.697-57.199C218.206 346.186 236.665 350 256 350s37.794-3.814 54.677-10.713c30.697 10.807 58.134 30.962 77.697 57.199zM256 320c-63.411 0-115-51.589-115-115S192.589 90 256 90s115 51.589 115 115c0 21.972-6.198 42.521-16.931 60H298c-8.284 0-15 6.716-15 15s6.716 15 15 15h29.504c-19.645 15.64-44.501 25-71.504 25zm165-55h-33.008a143.826 143.826 0 0 0 9.879-30H421z"/></svg>