<svg fill="#ff4545" xmlns="http://www.w3.org/2000/svg" viewBox="0 0 512 512" style="enable-background:new 0 0 512 512" xml:space="preserve"><path d="M462 74H50C22.43 74 0 96.43 0 124v264c0 27.57 22.43 50 50 50h155c5.523 0 10-4.477 10-10s-4.477-10-10-10H50c-16.542 0-30-13.458-30-30V266h217.339c1.603 8.116 6.434 15.268 13.599 19.811a30.716 30.716 0 0 0 7.373 3.395l-17.606 30.278a9.999 9.999 0 0 0 11.237 14.685l23.946-6.427 6.407 23.951a10 10 0 0 0 18.321 2.416l45.592-78.968 57.119 101.554a10 10 0 0 0 18.376-2.318l6.408-23.952 23.946 6.427a10 10 0 0 0 11.29-14.594l-29.407-51.821c.929.086 1.86.139 2.791.139 5.684 0 11.339-1.602 16.331-4.766 7.165-4.542 11.997-11.695 13.599-19.811H492v122c0 16.542-13.458 30-30 30H362v-54c0-5.523-4.477-10-10-10s-10 4.477-10 10v54h-51.965c-5.523 0-10 4.477-10 10s4.477 10 10 10H462c27.57 0 50-22.43 50-50V124c0-27.57-22.43-50-50-50zM261.647 268.918c-3.111-1.972-4.895-5.215-4.895-8.899v-70.063h-.001c0-3.684 1.784-6.927 4.895-8.899 3.111-1.973 6.806-2.202 10.137-.63l49.064 23.149a30.391 30.391 0 0 0-1.873 10.533V235.5c0 3.818.71 7.471 1.996 10.842l-49.186 23.206c-3.331 1.57-7.025 1.342-10.137-.63zm33.727 54.271-2.751-10.284a10 10 0 0 0-12.252-7.074l-10.18 2.732 12.94-22.254 46.091-21.746-33.848 58.626zm-15.056-160.851c-9.514-4.488-20.496-3.805-29.379 1.826s-14.187 15.273-14.187 25.791V246H20V124c0-16.542 13.458-30 30-30h292v85.667c0 1.654.408 3.209 1.119 4.583a30.354 30.354 0 0 0-8.973 3.485l-53.828-25.397zm74.326 83.698h-5.134c-5.81 0-10.537-4.727-10.537-10.536v-21.392c0-5.81 4.727-10.536 10.537-10.536h5.134c5.81 0 10.537 4.726 10.537 10.536V235.5c0 5.81-4.727 10.536-10.537 10.536zm79.511 85.303-10.526-2.825a10.002 10.002 0 0 0-12.252 7.074l-2.651 9.908-45.403-80.724c2.202-.654 4.3-1.55 6.265-2.658l34.528 16.291 30.039 52.934zm8.199-62.42c-3.112 1.973-6.806 2.202-10.137.63l-49.056-23.145a30.378 30.378 0 0 0 2.02-10.904v-21.392c0-3.723-.672-7.292-1.897-10.594l48.933-23.087c3.332-1.571 7.025-1.342 10.137.63 3.111 1.972 4.895 5.216 4.895 8.899v70.064c0 3.683-1.784 6.927-4.895 8.899zM492.001 246h-24.752v-56.044c0-10.518-5.304-20.16-14.187-25.791-8.884-5.631-19.867-6.313-29.379-1.826l-53.743 25.356a30.326 30.326 0 0 0-9.042-3.477 9.947 9.947 0 0 0 1.103-4.551V94h100c16.542 0 30 13.458 30 30v122z"/><path d="M253.82 420.93c-1.86-1.86-4.44-2.93-7.07-2.93s-5.21 1.07-7.07 2.93-2.93 4.44-2.93 7.07 1.07 5.21 2.93 7.07c1.86 1.86 4.44 2.93 7.07 2.93s5.21-1.07 7.07-2.93c1.87-1.86 2.93-4.44 2.93-7.07s-1.06-5.21-2.93-7.07zM211.5 128H64c-5.523 0-10 4.477-10 10s4.477 10 10 10h147.5c5.523 0 10-4.477 10-10s-4.477-10-10-10zM211.5 354H64c-5.523 0-10 4.477-10 10s4.477 10 10 10h147.5c5.523 0 10-4.477 10-10s-4.477-10-10-10zM126 182H64c-5.523 0-10 4.477-10 10s4.477 10 10 10h62c5.523 0 10-4.477 10-10s-4.477-10-10-10zM171.76 184.93a10.076 10.076 0 0 0-7.07-2.93c-2.64 0-5.21 1.07-7.07 2.93s-2.93 4.44-2.93 7.07 1.07 5.21 2.93 7.07 4.43 2.93 7.07 2.93c2.63 0 5.21-1.07 7.07-2.93s2.93-4.44 2.93-7.07-1.07-5.21-2.93-7.07z"/></svg>