<svg fill="#ff4545" xmlns="http://www.w3.org/2000/svg" height="512" width="512"><path d="M71.858 418.114 120 442.181V502c0 5.523 4.478 10 10 10h106c5.522 0 10-4.477 10-10V365.45c0-30.637-22.983-56.045-53.391-59.093-.118-.033-42.3-6.618-61.87-26.189l-22.458-22.448C100.725 250.162 90.681 246 80 246v-80c0-22.056-17.944-40-40-40S0 143.944 0 166v135.84c0 49.212 27.798 94.239 71.858 116.274zM20 166c0-11.028 8.972-20 20-20s20 8.972 20 20v85.361c-12.196 7.052-20 20.2-20 34.639 0 10.68 4.162 20.723 11.719 28.28l51.21 51.22c3.903 3.905 10.236 3.907 14.142.001 3.905-3.905 3.906-10.236.001-14.142l-51.21-51.221A19.863 19.863 0 0 1 60 286c0-8.464 5.357-16.044 13.332-18.861l.009-.004h.001c6.896-2.444 15.077-.994 20.799 4.728l22.458 22.449c23.186 23.185 73.843 31.91 73.944 31.938A39.27 39.27 0 0 1 226 365.45V492h-86v-56a10 10 0 0 0-5.528-8.944l-53.669-26.83C43.299 381.469 20 343.77 20 301.84z"/><path d="M136 246h240c5.522 0 10-4.477 10-10V10c0-5.523-4.478-10-10-10H136c-5.522 0-10 4.477-10 10v226c0 5.523 4.478 10 10 10zm90-226h60v53.893l-25.975-12.855a9.997 9.997 0 0 0-8.944.037L226 73.745zm-80 0h60v70a10 10 0 0 0 14.509 8.926l35.127-17.745 35.929 17.782A10.002 10.002 0 0 0 306 90V20h60v206H146z"/><path d="M336 176h-60c-5.522 0-10 4.477-10 10s4.478 10 10 10h60c5.522 0 10-4.477 10-10s-4.478-10-10-10z"/><circle cx="459" cy="394" r="10"/><path d="M472 126c-22.056 0-40 17.944-40 40v80c-10.681 0-20.725 4.162-28.279 11.717l-22.462 22.452c-12.3 12.301-43.459 24.337-61.128 26.108l-.668.072C288.983 309.405 266 334.813 266 365.45V502c0 5.523 4.478 10 10 10h106c5.522 0 10-4.477 10-10v-59.819l32.73-16.362c4.939-2.47 6.942-8.476 4.473-13.417-2.469-4.938-8.474-6.942-13.416-4.473l-38.259 19.125A10.005 10.005 0 0 0 372 436v56h-86V365.45c0-20.321 15.243-37.174 35.529-39.208l.669-.072c21.691-2.175 57.605-16.262 73.201-31.857l22.462-22.452c5.724-5.724 13.913-7.166 20.797-4.726h.001l.009.004c13.771 4.865 17.917 22.551 7.471 33.001l-51.21 51.22c-3.905 3.906-3.904 10.237.001 14.142 3.904 3.904 10.237 3.905 14.142-.001l51.21-51.22c18.487-18.49 14.636-49.669-8.281-62.92V166c0-11.028 8.972-20 20-20s20 8.972 20 20v135.84c0 18.296-4.617 36.46-13.353 52.528-2.639 4.852-.844 10.924 4.009 13.562 4.851 2.636 10.924.843 13.562-4.009C506.543 344.931 512 323.463 512 301.84V166c0-22.056-17.944-40-40-40z"/></svg>