<svg fill="#ff871d" height="512pt" viewBox="0 0 512 512" width="512pt" xmlns="http://www.w3.org/2000/svg"><path d="M410 0c8.285 0 15 6.715 15 15v199.027c52.363 26.196 87 79.977 87 140.723C512 441.594 441.594 512 354.75 512c-60.746 0-114.527-34.637-140.723-87H15c-8.285 0-15-6.715-15-15V15C0 6.715 6.715 0 15 0zM284 30v84.063c0 10.785-11.508 19.085-22.746 12.843L212.5 102.133l-49.762 25.289c-9.988 5.058-21.71-2.324-21.703-13.36L141 30H30v365h172.703c-14.52-54.977 1.809-112.395 40.856-151.441S340.023 188.184 395 202.703V30zm23 391h69.996c15.984 0 30.488-6.512 40.988-17.016C429.024 392.95 435 378.652 435 362.004 435 330.035 408.965 304 376.996 304h-41.684l8.805-8.82c13.871-13.953-7.34-35.043-21.21-21.094l-34.403 34.465c-5.824 5.855-5.8 15.328.059 21.152l34.468 34.402c13.95 13.872 35.043-7.34 21.094-21.21L335.211 334h41.785C393.238 334 405 346.984 405 362.996 405 378.402 392.402 391 376.996 391H307c-8.285 0-15 6.715-15 15s6.715 15 15 15zm-42.23-156.23c-49.692 49.695-49.692 130.27 0 179.96 49.695 49.696 130.27 49.696 179.96 0 49.696-49.69 49.696-130.265 0-179.96-49.69-49.692-130.27-49.692-179.96 0zM254 30h-83v59.656l34.727-17.648a14.939 14.939 0 0 1 13.511-.02L254 89.656zm0 0" fill-rule="evenodd"/></svg>