<svg fill="#ff871d" height="512" width="512" xmlns="http://www.w3.org/2000/svg"><path d="m507.606 395.512-81.129-81.138-1.671-20.564 22.359-13.626a15 15 0 0 0 6.039-18.582l-10.075-24.166 17.052-19.868a15.001 15.001 0 0 0 .002-19.538l-17.055-19.875 10.076-24.167a15 15 0 0 0-6.039-18.582l-22.359-13.626 2.12-26.094a15.001 15.001 0 0 0-11.484-15.809l-25.472-6.049-6.051-25.479c-1.711-7.207-8.44-12.082-15.808-11.485l-26.102 2.12-13.627-22.36c-3.854-6.326-11.751-8.887-18.584-6.038l-24.164 10.082L265.77 3.617a15.001 15.001 0 0 0-19.539 0l-19.866 17.051L202.2 10.587a15 15 0 0 0-18.584 6.038l-13.627 22.36-26.102-2.12c-7.382-.591-14.096 4.278-15.808 11.485l-6.051 25.479-25.472 6.049a15.001 15.001 0 0 0-11.484 15.809l2.12 26.094-22.359 13.626a15 15 0 0 0-6.039 18.582l10.076 24.167-17.055 19.875a15.001 15.001 0 0 0 .002 19.538l17.052 19.868-10.075 24.166a15 15 0 0 0 6.039 18.582l22.359 13.626-1.671 20.564-81.127 81.137a14.998 14.998 0 0 0 5.863 24.837l61.048 20.347 20.347 61.048a14.998 14.998 0 0 0 24.837 5.863L227.88 396.225l18.349 15.755c5.592 4.801 13.893 4.851 19.543 0l18.349-15.755 111.391 111.381a14.998 14.998 0 0 0 24.837-5.863l20.347-61.048 61.048-20.347a14.998 14.998 0 0 0 5.862-24.836zm-395.163 73.72-15.05-45.146a15.003 15.003 0 0 0-9.487-9.487L42.77 399.555l61.912-61.913 17.347 4.121 6.052 25.479c1.712 7.207 8.447 12.082 15.808 11.485l26.102-2.12 13.283 21.797zm208.76-116.13-11.736 19.258-20.812-8.683a15.002 15.002 0 0 0-15.547 2.463L256 380.829l-17.108-14.689c-6.015-5.165-12.781-3.617-15.547-2.463l-20.812 8.683-11.736-19.258a14.994 14.994 0 0 0-14.022-7.145l-22.481 1.826-5.212-21.944a15 15 0 0 0-11.127-11.128l-21.937-5.211 1.826-22.474a14.999 14.999 0 0 0-7.146-14.023l-19.26-11.737 8.678-20.813a14.996 14.996 0 0 0-2.463-15.542l-14.687-17.112 14.688-17.118a15 15 0 0 0 2.461-15.541l-8.678-20.813 19.26-11.737a15.003 15.003 0 0 0 7.146-14.023l-1.826-22.474 21.937-5.21a14.998 14.998 0 0 0 11.127-11.128l5.212-21.944 22.481 1.825a14.989 14.989 0 0 0 14.022-7.145l11.736-19.258 20.812 8.683a15.004 15.004 0 0 0 15.545-2.461L256 34.768l17.11 14.687a15.001 15.001 0 0 0 15.545 2.461l20.812-8.683 11.736 19.258a14.98 14.98 0 0 0 14.022 7.145l22.481-1.825 5.212 21.944a14.998 14.998 0 0 0 11.127 11.128l21.937 5.21-1.826 22.474a14.999 14.999 0 0 0 7.146 14.023l19.26 11.737-8.678 20.813a14.998 14.998 0 0 0 2.461 15.541l14.688 17.118-14.687 17.112a14.998 14.998 0 0 0-2.463 15.542l8.678 20.813-19.26 11.737a15.003 15.003 0 0 0-7.146 14.023l1.826 22.474-21.937 5.211a15 15 0 0 0-11.127 11.128l-5.212 21.944-22.481-1.826a14.996 14.996 0 0 0-14.021 7.145zm102.891 61.497a15 15 0 0 0-9.487 9.487l-15.05 45.146-70.829-70.829 13.283-21.797 26.102 2.12c7.36.597 14.096-4.278 15.808-11.485l6.052-25.479 17.347-4.121 61.912 61.913z"/><path d="m379.073 165.06-45.444-45.444c-5.857-5.858-15.355-5.858-21.213 0l-72.482 72.482-32.316-32.315c-5.857-5.858-15.355-5.858-21.213 0l-45.444 45.445c-5.858 5.858-5.858 15.355 0 21.213l88.367 88.367c5.858 5.859 15.357 5.857 21.213 0l128.533-128.534c5.858-5.859 5.858-15.356-.001-21.214zM239.934 282.987l-67.154-67.153 24.231-24.231 32.316 32.315c5.857 5.858 15.355 5.858 21.213 0l72.482-72.482 24.231 24.231z"/></svg>