<svg xmlns="http://www.w3.org/2000/svg" height="512" width="512"><path d="m416.303 242.244-72.456-72.457V45c0-24.813-20.187-45-45-45h-196c-24.813 0-45 20.187-45 45v422c0 24.813 20.187 45 45 45h306c7.146 0 13.299-5.04 14.706-12.046l27.953-139.147c8.732-43.466-4.428-87.788-35.203-118.563zM102.847 30h196c8.271 0 15 6.729 15 15v193.479c-18.398-18.146-47.955-18.046-66.228.226-18.311 18.281-18.399 47.958-.122 66.359l57.456 59.733c-12.456 9.296-28.592 25.521-40.18 52.203H87.847V45c0-8.271 6.728-15 15-15zm-15 437v-20h167.229c-2.378 10.518-4.06 22.148-4.801 35H102.847c-8.272 0-15-6.729-15-15zm334.247-112.102L396.561 482H280.345c2.163-31.861 11.334-58.562 26.846-77.835 12.86-15.979 25.954-21.708 26.997-22.146 9.815-3.513 13.323-16.253 5.47-24.417-70.924-73.736-70.706-73.512-70.834-73.638-6.588-6.588-6.692-17.355 0-24.037 6.613-6.612 17.362-6.63 23.997-.049 31.711 32.436 16.291 16.871 71.785 72.364 5.857 5.858 15.355 5.859 21.213 0 5.858-5.858 5.858-15.355 0-21.213l-41.972-41.971v-56.844l51.243 51.243c23.658 23.658 33.754 57.842 27.004 91.441z"/></svg>